<?xml version="1.0" encoding="UTF-8" standalone="no"?>
<!-- Created with Inkscape (http://www.inkscape.org/) -->

<svg
   width="24mm"
   height="24mm"
   viewBox="0 0 24 24"
   version="1.1"
   id="svg190"
   sodipodi:docname="icon.svg"
   inkscape:version="1.3 (0e150ed6c4, 2023-07-21)"
   xmlns:inkscape="http://www.inkscape.org/namespaces/inkscape"
   xmlns:sodipodi="http://sodipodi.sourceforge.net/DTD/sodipodi-0.dtd"
   xmlns="http://www.w3.org/2000/svg"
   xmlns:svg="http://www.w3.org/2000/svg">
  <sodipodi:namedview
     id="namedview1"
     pagecolor="#ffffff"
     bordercolor="#000000"
     borderopacity="0.25"
     inkscape:showpageshadow="2"
     inkscape:pageopacity="0.0"
     inkscape:pagecheckerboard="0"
     inkscape:deskcolor="#d1d1d1"
     inkscape:document-units="mm"
     inkscape:zoom="6.3999916"
     inkscape:cx="44.843809"
     inkscape:cy="58.828203"
     inkscape:window-width="1920"
     inkscape:window-height="1017"
     inkscape:window-x="-8"
     inkscape:window-y="356"
     inkscape:window-maximized="1"
     inkscape:current-layer="svg190" />
  <defs
     id="defs187">
    <clipPath
       clipPathUnits="userSpaceOnUse"
       id="clipPath15719">
      <path
         style="fill:#08a95d;fill-opacity:1;stroke:#000000;stroke-width:0.2;stroke-linecap:round;stroke-linejoin:round;stroke-dasharray:none;stroke-opacity:1"
         id="path15721"
         d="m 14.270442,14.113623 a 7.0254478,7.0254478 0 0 1 7.025448,7.025448 7.0254478,7.0254478 0 0 1 -7.025448,7.025447 v -7.025447 z" />
    </clipPath>
  </defs>
  <ellipse
     style="fill:#ffe981;fill-opacity:1;stroke:#000000;stroke-width:0.208087;stroke-linecap:round;stroke-linejoin:round;stroke-dasharray:none;stroke-opacity:1"
     id="path16622"
     cx="-10.710298"
     cy="18.642027"
     rx="5.3904972"
     ry="6.6764054"
     transform="scale(-1,1)" />
  <path
     id="path16622-6"
     style="fill:#d7a34f;fill-opacity:1;stroke:none;stroke-width:0.208087;stroke-linecap:round;stroke-linejoin:round;stroke-dasharray:none;stroke-opacity:1"
     d="m 10.65469,12.063572 a 5.3904972,6.6764054 0 0 1 3.726388,1.857251 5.3904972,6.6764054 0 0 1 -4.435906,2.890779 5.3904972,6.6764054 0 0 1 -3.728454,-1.859834 5.3904972,6.6764054 0 0 1 4.437972,-2.888196 z" />
  <path
     id="path16622-7"
     style="fill:#d7a34f;fill-opacity:1;stroke:none;stroke-width:0.150526;stroke-linecap:round;stroke-linejoin:round;stroke-dasharray:none;stroke-opacity:1"
     d="m 9.528894,14.82785 a 4.7805124,3.9393841 49.763268 0 1 3.098548,-0.254099 4.7805124,3.9393841 49.763268 0 1 -1.697746,3.349723 4.7805124,3.9393841 49.763268 0 1 -3.100872,0.253313 4.7805124,3.9393841 49.763268 0 1 1.70007,-3.348937 z" />
  <path
     id="rect18513-5"
     style="fill:#d7a34f;fill-opacity:1;stroke:none;stroke-width:0.180635;stroke-linecap:round;stroke-linejoin:round"
     d="m 9.337418,13.162533 c 0.405493,-0.895549 -2.334397,-0.767091 -2.949217,0 -1.399982,1.746711 1.439612,4.316027 1.4622,6.554429 0.02484,2.461567 -3.021062,5.333654 -1.4622,7.238879 0.622528,0.760848 2.539434,0.893593 2.949217,0 -1.030178,-4.009881 1.172183,-4.181796 1.183965,-6.664117 0.01254,-2.642326 -2.434476,-4.367383 -1.183965,-7.129191 z" />
  <path
     style="fill:none;fill-opacity:1;stroke:#000000;stroke-width:0.2;stroke-linecap:round;stroke-linejoin:round;stroke-dasharray:none;stroke-opacity:1"
     d="m 16.061453,19.368217 c -1.168835,1.01369 -3.659595,1.562779 -7.407259,-0.266131"
     id="path18903-3" />
  <path
     style="fill:none;fill-opacity:1;stroke:#000000;stroke-width:0.2;stroke-linecap:round;stroke-linejoin:round;stroke-dasharray:none;stroke-opacity:1"
     d="m 15.551372,21.541605 c -1.168835,1.01369 -3.659595,1.562779 -7.407259,-0.266131"
     id="path18903-5" />
  <path
     style="fill:none;fill-opacity:1;stroke:#000000;stroke-width:0.2;stroke-linecap:round;stroke-linejoin:round;stroke-dasharray:none;stroke-opacity:1"
     d="M 15.152179,14.954911 C 13.983344,15.968601 11.492583,16.51769 7.74492,14.68878"
     id="path18903-6" />
  <g
     id="g15650"
     clip-path="url(#clipPath15719)"
     transform="matrix(-1,0,0,1,21.938469,-1.5875)">
    <path
       style="fill:#08a95d;fill-opacity:1;stroke:#000000;stroke-width:0.145604;stroke-linecap:round;stroke-linejoin:round;stroke-dasharray:none;stroke-opacity:1"
       id="path15497"
       d="M 10.356855,19.449596 8.0985827,20.655393 5.9251954,19.30257 6.0100806,16.74395 8.268353,15.538153 10.44174,16.890976 Z"
       transform="matrix(1.3722614,-0.06045554,0.06045554,1.3722614,5.0521007,-3.6019263)" />
    <path
       style="fill:#08a95d;fill-opacity:1;stroke:#000000;stroke-width:0.145604;stroke-linecap:round;stroke-linejoin:round;stroke-dasharray:none;stroke-opacity:1"
       id="path15497-7"
       d="M 10.356855,19.449596 8.0985827,20.655393 5.9251954,19.30257 6.0100806,16.74395 8.268353,15.538153 10.44174,16.890976 Z"
       transform="matrix(1.3722614,-0.06045554,0.06045554,1.3722614,11.176316,-3.6510401)" />
    <path
       style="fill:#08a95d;fill-opacity:1;stroke:#000000;stroke-width:0.145604;stroke-linecap:round;stroke-linejoin:round;stroke-dasharray:none;stroke-opacity:1"
       id="path15497-79"
       d="M 10.356855,19.449596 8.0985827,20.655393 5.9251954,19.30257 6.0100806,16.74395 8.268353,15.538153 10.44174,16.890976 Z"
       transform="matrix(1.3722614,-0.06045554,0.06045554,1.3722614,8.1806082,1.6665546)" />
    <path
       style="fill:#08a95d;fill-opacity:1;stroke:#000000;stroke-width:0.145604;stroke-linecap:round;stroke-linejoin:round;stroke-dasharray:none;stroke-opacity:1"
       id="path15497-0"
       d="M 10.356855,19.449596 8.0985827,20.655393 5.9251954,19.30257 6.0100806,16.74395 8.268353,15.538153 10.44174,16.890976 Z"
       transform="matrix(1.3722614,-0.06045554,0.06045554,1.3722614,2.0092613,1.6459814)" />
    <path
       style="fill:#08a95d;fill-opacity:1;stroke:#000000;stroke-width:0.145604;stroke-linecap:round;stroke-linejoin:round;stroke-dasharray:none;stroke-opacity:1"
       id="path15497-0-6"
       d="M 10.356855,19.449596 8.0985827,20.655393 5.9251954,19.30257 6.0100806,16.74395 8.268353,15.538153 10.44174,16.890976 Z"
       transform="matrix(1.3722614,-0.06045554,0.06045554,1.3722614,8.0591789,-8.8427851)" />
    <path
       style="fill:#08a95d;fill-opacity:1;stroke:#000000;stroke-width:0.145604;stroke-linecap:round;stroke-linejoin:round;stroke-dasharray:none;stroke-opacity:1"
       id="path15497-0-3"
       d="M 10.356855,19.449596 8.0985827,20.655393 5.9251954,19.30257 6.0100806,16.74395 8.268353,15.538153 10.44174,16.890976 Z"
       transform="matrix(1.3722614,-0.06045554,0.06045554,1.3722614,1.9308522,-8.8451453)" />
  </g>
  <path
     style="fill:none;fill-opacity:1;stroke:#000000;stroke-width:0.2;stroke-linecap:round;stroke-linejoin:round;stroke-dasharray:none;stroke-opacity:1"
     id="path11594"
     d="M 7.6680269,12.526123 A 7.0254478,7.0254478 0 0 0 0.64257908,19.551571 7.0254478,7.0254478 0 0 0 7.6680269,26.577019 V 19.551571 Z" />
  <path
     id="rect18513"
     style="fill:#ffffff;stroke:#000000;stroke-width:0.180635;stroke-linecap:round;stroke-linejoin:round"
     d="m 8.111821,12.829943 c 0.405493,-0.895549 -2.334397,-0.767091 -2.949217,0 -1.399982,1.746711 1.439612,4.316027 1.4622,6.554429 0.02484,2.461567 -3.021062,5.333654 -1.4622,7.238879 0.622528,0.760848 2.539434,0.893593 2.949217,0 C 7.081643,22.61337 9.284004,22.441455 9.295786,19.959134 9.308326,17.316808 6.86131,15.591751 8.111821,12.829943 Z" />
  <circle
     style="fill:#49c961;fill-opacity:1;stroke:#000000;stroke-width:0.2;stroke-dasharray:none;stroke-opacity:1"
     id="path451-1"
     cx="-10.177116"
     cy="8.1665821"
     r="7"
     transform="scale(-1,1)" />
  <path
     id="path451"
     style="fill:#164920;fill-opacity:1;stroke:none;stroke-width:0.2;stroke-dasharray:none;stroke-opacity:1"
     d="M 6.44508,2.3764003 A 7,7 0 0 0 4.431766,7.2882451 7,7 0 0 0 11.431855,14.288335 7,7 0 0 0 15.145324,13.216049 7,7 0 0 1 10.161649,15.307911 7,7 0 0 1 3.161559,8.3078212 7,7 0 0 1 6.44508,2.3764003 Z" />
  <circle
     style="fill:none;fill-opacity:1;stroke:#000000;stroke-width:0.2;stroke-dasharray:none;stroke-opacity:1"
     id="path451-1-1"
     cx="-10.177116"
     cy="8.1665821"
     r="7"
     transform="scale(-1,1)" />
  <path
     style="fill:none;fill-opacity:1;stroke:#000000;stroke-width:0.2;stroke-linecap:round;stroke-linejoin:round;stroke-dasharray:none;stroke-opacity:1"
     d="m 15.773146,16.952822 c -1.168835,1.01369 -3.659595,1.562779 -7.407258,-0.266131"
     id="path18903" />
  <g
     id="g1"
     transform="translate(-20.463894,1.9430364)">
    <path
       d="m 31.309352,21.891785 h 8.442407 c 0.36414,-6.48e-4 0.659172,-0.29568 0.65982,-0.65982 v -8.930508 c -3.9e-5,-0.04678 -0.01865,-0.09163 -0.05174,-0.124674 l -1.280827,-1.280827 c -0.03305,-0.0331 -0.07789,-0.05171 -0.124674,-0.05174 h -7.644977 c -0.36414,6.48e-4 -0.659172,0.29568 -0.65982,0.65982 v 9.727938 c 6.48e-4,0.36414 0.29568,0.659172 0.65982,0.65982 z"
       id="path1-23-0"
       style="fill:#ffffff;fill-opacity:1;stroke-width:0.117615"
       sodipodi:nodetypes="ccccccccccsc" />
    <path
       d="m 31.309352,21.891785 h 8.442407 c 0.36414,-6.48e-4 0.659172,-0.29568 0.65982,-0.65982 v -8.930508 c -3.9e-5,-0.04678 -0.01865,-0.09163 -0.05174,-0.124674 l -1.280827,-1.280827 c -0.03305,-0.0331 -0.07789,-0.05171 -0.124674,-0.05174 h -7.644977 c -0.36414,6.48e-4 -0.659172,0.29568 -0.65982,0.65982 v 9.727938 c 6.48e-4,0.36414 0.29568,0.659172 0.65982,0.65982 z M 38.68499,21.538939 H 32.526669 V 16.59911 c 6.46e-4,-0.210843 0.171406,-0.381603 0.382249,-0.382249 h 5.393823 c 0.210842,6.46e-4 0.381603,0.171406 0.382249,0.382249 z M 35.950441,11.197051 h 1.167917 v 1.999456 h -1.167917 z m -3.771914,0 h 3.41907 v 2.175879 c 0,0.09744 0.07898,0.176421 0.176422,0.176421 h 1.520762 c 0.09744,0 0.176423,-0.07898 0.176423,-0.176421 v -2.175879 h 0.361077 v 2.504024 c -6.47e-4,0.222344 -0.181074,0.402246 -0.403419,0.402244 h -4.846915 c -0.222345,2e-6 -0.402772,-0.1799 -0.40342,-0.402244 z"
       id="path1-23"
       style="fill:#000000;fill-opacity:1;stroke-width:0.117615"
       sodipodi:nodetypes="ccccccccccsccccccccccccccccsscccccccc" />
  </g>
  <ellipse
     style="fill:#49c961;fill-opacity:1;stroke:#000000;stroke-width:0.200583;stroke-linecap:round;stroke-linejoin:round;stroke-dasharray:none;stroke-opacity:1"
     id="path19010"
     cx="15.068633"
     cy="-11.663547"
     rx="2.1490526"
     ry="2.7542341"
     transform="matrix(0.9647148,0.2632971,0.36556548,-0.93078562,0,0)" />
  <circle
     style="fill:#ffffff;fill-opacity:1;stroke:#000000;stroke-width:0.2;stroke-dasharray:none;stroke-opacity:1"
     id="path2188"
     cx="-15.728475"
     cy="5.5634027"
     r="2.7286336"
     transform="scale(-1,1)" />
  <circle
     style="fill:#000000;fill-opacity:1;stroke:#000000;stroke-width:0.100209;stroke-dasharray:none;stroke-opacity:1"
     id="path2188-7"
     cx="-16.418474"
     cy="5.5634027"
     r="1.3671669"
     transform="scale(-1,1)" />
  <circle
     style="fill:#ffffff;fill-opacity:1;stroke:#000000;stroke-width:0.2;stroke-dasharray:none;stroke-opacity:1"
     id="path2188-1"
     cx="-9.5498438"
     cy="5.5634027"
     r="2.7286336"
     transform="scale(-1,1)" />
  <circle
     style="fill:#000000;fill-opacity:1;stroke:#000000;stroke-width:0.100209;stroke-dasharray:none;stroke-opacity:1"
     id="path2188-7-1"
     cx="-10.208479"
     cy="5.5634027"
     r="1.3671669"
     transform="scale(-1,1)" />
  <path
     id="path4702"
     style="fill:#164920;fill-opacity:1;stroke:#164920;stroke-width:0.2;stroke-opacity:1"
     d="m 11.522925,9.969988 c 0,0.354408 -0.146298,1.255602 0.426235,1.734622 0.572532,0.47902 1.27792,0.47902 1.850452,0 0.572532,-0.47902 0.431779,-1.372143 0.431779,-1.734622 0,-0.362479 -0.706821,0.0125 -1.329283,0.0125 -0.622462,0 -1.379183,-0.36691 -1.379183,-0.0125 z" />
  <path
     id="path4702-7"
     style="fill:#d393df;fill-opacity:1;stroke:none;stroke-width:0.2;stroke-opacity:1"
     d="m 11.522567,10.006624 a 2.0543163,2.0543163 0 0 1 1.904277,1.935283 c -0.487876,0.221061 -1.024259,0.141958 -1.477429,-0.237195 -0.553674,-0.463242 -0.43526,-1.321537 -0.426848,-1.698088 z" />
  <ellipse
     style="fill:#ffffff;fill-opacity:1;stroke:none;stroke-width:0.228;stroke-linecap:round;stroke-linejoin:round;stroke-dasharray:none;stroke-opacity:1"
     id="path9250"
     cx="-12.922438"
     cy="-2.3234804"
     rx="1.1055672"
     ry="0.36852238"
     transform="matrix(-0.9360481,-0.35187207,-0.35187207,0.9360481,0,0)" />
</svg>
